<?xml version="1.0" encoding="UTF-8"?>
<svg width="150px" height="151px" viewBox="0 0 150 151" version="1.1" xmlns="http://www.w3.org/2000/svg" xmlns:xlink="http://www.w3.org/1999/xlink">
    <!-- Generator: Sketch 52.2 (67145) - http://www.bohemiancoding.com/sketch -->
    <title>icon-call</title>
    <desc>Created with Sketch.</desc>
    <g id="Page-1" stroke="none" stroke-width="1" fill="none" fill-rule="evenodd">
        <g id="icon-call">
            <path d="M75,0.688073394 C33.5786133,0.688073394 0,34.2666867 0,75.6883664 C0,91.3642453 4.81230469,105.915124 13.0362305,117.949694 L3.18486328,147.50321 L32.7386719,137.652136 C44.7732422,145.875769 59.3235352,150.688073 75,150.688073 C116.421387,150.688073 150,117.10946 150,75.6883664 C150,34.2666867 116.421387,0.688073394 75,0.688073394 Z" id="Path" fill="#FFFFFF"></path>
            <path d="M110.695014,97.3792782 C105.045059,91.729618 98.9934159,86.9733788 98.9934159,86.9733788 L90.1767268,95.7903569 L54.897984,60.511335 L63.7149654,51.6946492 C63.7149654,51.6946492 58.9590168,45.643008 53.3090621,39.9930554 C47.6591074,34.3433952 41.6077563,29.587156 41.6077563,29.587156 C41.6077563,29.587156 31.0431069,39.3060333 30.3326966,47.0141286 C29.3819747,57.3320307 40.3035832,76.0909492 57.4504912,93.2378507 C74.5973992,110.384752 93.3560323,121.306357 103.673938,120.355343 C111.382329,119.64464 121.100917,109.08058 121.100917,109.08058 C121.100917,109.08058 116.344676,103.029523 110.695014,97.3792782 Z" id="Path" fill="#45A4CD"></path>
        </g>
    </g>
</svg>