<?xml version="1.0" encoding="UTF-8"?>
<svg width="130px" height="130px" viewBox="0 0 130 130" version="1.1" xmlns="http://www.w3.org/2000/svg" xmlns:xlink="http://www.w3.org/1999/xlink">
    <!-- Generator: Sketch 52.4 (67378) - http://www.bohemiancoding.com/sketch -->
    <title>img-icon-tick</title>
    <desc>Created with Sketch.</desc>
    <defs>
        <polygon id="path-1" points="0 0 93 0 93 80 0 80"></polygon>
    </defs>
    <g id="Page-1" stroke="none" stroke-width="1" fill="none" fill-rule="evenodd">
        <g id="Apple-TV" transform="translate(-890.000000, -194.000000)">
            <g id="img-icon-tick" transform="translate(890.000000, 194.000000)">
                <polygon id="Star" fill="#FFFFFF" points="65 118.255325 54.8317598 129.199742 48.5431997 115.648823 35.4906175 122.915424 33.6973056 108.084463 19.0380592 110.961941 21.9155374 96.3026944 7.08457593 94.5093825 14.3511765 81.4568003 0.800257861 75.1682402 11.7446754 65 0.800257861 54.8317598 14.3511765 48.5431997 7.08457593 35.4906175 21.9155374 33.6973056 19.0380592 19.0380592 33.6973056 21.9155374 35.4906175 7.08457593 48.5431997 14.3511765 54.8317598 0.800257861 65 11.7446754 75.1682402 0.800257861 81.4568003 14.3511765 94.5093825 7.08457593 96.3026944 21.9155374 110.961941 19.0380592 108.084463 33.6973056 122.915424 35.4906175 115.648823 48.5431997 129.199742 54.8317598 118.255325 65 129.199742 75.1682402 115.648823 81.4568003 122.915424 94.5093825 108.084463 96.3026944 110.961941 110.961941 96.3026944 108.084463 94.5093825 122.915424 81.4568003 115.648823 75.1682402 129.199742"></polygon>
                <g id="Group-3" transform="translate(30.000000, 17.000000)">
                    <mask id="mask-2" fill="white">
                        <use xlink:href="#path-1"></use>
                    </mask>
                    <g id="Clip-2"></g>
                    <path d="M0.724803026,49.5838821 C7.44787591,52.2194259 25.08222,60.5148166 39.881186,79.547319 C40.4810841,80.3192683 41.6964046,80.059724 41.9081985,79.1039774 C44.2445856,68.5640302 55.5916423,26.6481906 92.4692994,2.12849942 C93.6247409,1.35989198 92.7176861,-0.421272212 91.4280714,0.0911327471 C76.7854559,5.9102708 49.7390316,20.7143184 36.0234306,53.9114762 C35.7650642,54.5375014 35.0343195,54.8159823 34.4388568,54.4962862 C29.9823122,52.1024639 12.9412131,43.6555795 0.800206119,47.4117307 C-0.228824334,47.7303129 -0.277614571,49.1895531 0.724803026,49.5838821" id="Fill-1" fill="#318EBF" mask="url(#mask-2)"></path>
                </g>
            </g>
        </g>
    </g>
</svg>