<?xml version="1.0" encoding="UTF-8"?>
<svg width="534px" height="72px" viewBox="0 0 534 72" version="1.1" xmlns="http://www.w3.org/2000/svg" xmlns:xlink="http://www.w3.org/1999/xlink">
    <!-- Generator: Sketch 52.2 (67145) - http://www.bohemiancoding.com/sketch -->
    <title>logo-finestdental</title>
    <desc>Created with Sketch.</desc>
    <defs>
        <polygon id="path-1" points="6.66368283e-05 0.970342412 30.54477 0.970342412 30.54477 71.6850327 6.66368283e-05 71.6850327"></polygon>
        <polygon id="path-3" points="0.646145739 0.296920623 59.1734368 0.296920623 59.1734368 64.4124514 0.646145739 64.4124514"></polygon>
        <polygon id="path-5" points="0.722146693 0.883158008 8.31128405 0.883158008 8.31128405 63.3733331 0.722146693 63.3733331"></polygon>
        <polygon id="path-7" points="0.712969524 0.494851426 54.0078763 0.494851426 54.0078763 52.9844358 0.712969524 52.9844358"></polygon>
    </defs>
    <g id="Page-1" stroke="none" stroke-width="1" fill="none" fill-rule="evenodd">
        <g id="logo-finestdental" transform="translate(0.000000, -1.000000)">
            <g id="Group-3" transform="translate(0.000000, 0.068776)">
                <mask id="mask-2" fill="white">
                    <use xlink:href="#path-1"></use>
                </mask>
                <g id="Clip-2"></g>
                <path d="M15.2526607,1.01937899 C11.0835128,1.48065525 7.83691751,2.68994708 5.39651673,4.72621167 C3.51401089,6.28249961 1.68864514,9.41377588 0.939590661,12.3331144 C-0.00270116732,16.0202078 -0.0401019455,16.9614607 0.0170381323,45.2738498 L0.0752171206,71.6850327 L3.91710817,71.6850327 L7.76003813,71.6850327 L7.81717821,50.6907292 L7.8556179,29.716165 L16.6936296,29.716165 L25.5316412,29.716165 L25.5316412,26.4508693 L25.5316412,23.1845346 L16.6936296,23.1845346 L7.8556179,23.1845346 L7.8556179,19.9576786 C7.8556179,15.2327136 8.43221323,12.8515307 10.0269409,10.8339665 C12.6979798,7.43465136 19.7293261,6.58897821 28.5101977,8.60654241 C29.470151,8.83718054 30.2960848,9.02834008 30.3927035,9.04807938 C30.5464623,9.06781868 30.6036023,2.46034786 30.4695829,2.30658911 C30.2773844,2.13309105 27.9523027,1.67181479 25.8391588,1.38403658 C23.6293961,1.09625837 16.7133689,0.865620233 15.2526607,1.01937899" id="Fill-1" fill="#218EC9" mask="url(#mask-2)"></path>
            </g>
            <path d="M218.486516,7.58228054 L214.778644,7.62072023 L214.778644,34.1461833 C214.778644,63.611763 214.720465,62.2289732 216.065854,65.051693 C218.294317,69.7008175 224.058193,72.0820004 232.16585,71.7173428 C234.509632,71.6020237 238.544761,71.1407475 241.868235,70.5838914 L243.309204,70.333514 L243.367383,67.0110782 C243.405823,63.8995412 243.386084,63.6876035 243.078566,63.7842222 C242.157053,64.0533 237.411309,64.8594946 235.585944,65.0714323 C233.183982,65.3207708 229.649609,65.1867514 227.881383,64.7639148 C225.479422,64.1873195 224.001053,63.0736074 223.11694,61.1724012 L222.559045,59.9620704 L222.501905,43.5774128 L222.444765,27.2124946 L232.262469,27.2124946 L242.060434,27.2124946 L242.060434,23.9471988 L242.060434,20.6819031 L232.262469,20.6819031 L222.463465,20.6819031 L222.463465,14.1700121 C222.463465,10.5784984 222.405286,7.62072023 222.329446,7.58228054 C222.232827,7.54384086 220.50408,7.54384086 218.486516,7.58228054" id="Fill-4" fill="#218EC9"></path>
            <g id="Group-8" transform="translate(247.260700, 8.380060)">
                <mask id="mask-4" fill="white">
                    <use xlink:href="#path-3"></use>
                </mask>
                <g id="Clip-7"></g>
                <path d="M51.0941381,10.1883875 C51.0941381,15.6239673 51.0359591,20.0798545 50.9788191,20.0798545 C50.9009008,20.0798545 50.2869047,19.6580568 49.575251,19.1396405 C44.5614689,15.4702086 40.4879008,13.4734226 36.2034339,12.609049 C33.2446167,12.0127144 29.3840253,11.7831152 26.2704105,12.0127144 C18.6240292,12.5893097 12.9754728,14.8749128 8.4603677,19.2165198 C4.73275681,22.8080335 2.33079572,27.3023603 1.12046498,32.9498778 C0.525169261,35.6770179 0.486729572,41.0357183 1.02488521,43.5145588 C2.17807588,48.8150802 4.34835992,53.0029284 7.74975292,56.5373019 C12.3417374,61.3007066 17.6443366,63.6631891 25.0798191,64.2969245 C29.6333638,64.6813214 35.1084222,64.0860257 38.9513521,62.8185549 C42.1595078,61.7225043 45.9442588,59.5335198 49.63343,56.5757416 C50.5549436,55.8266872 51.363216,55.2303525 51.3819163,55.2698311 C51.4193171,55.3082708 51.6509942,57.0172786 51.9003327,59.0722436 L52.3418696,62.8185549 L55.6092432,62.8756949 C57.3951304,62.8943953 58.9514183,62.8943953 59.0667374,62.8559556 C59.2017957,62.7988156 59.2017957,62.2419595 59.105177,61.1656482 C59.0095973,60.2825743 58.8745389,46.2416988 58.8173988,29.9723603 L58.6833794,0.392500389 L54.8975895,0.335360311 L51.0941381,0.296920623 L51.0941381,10.1883875 Z M34.2824883,18.8508233 C37.0106673,19.2549595 39.2578307,19.9842747 41.9673093,21.3296638 C44.792107,22.7311541 47.0974494,24.3643214 49.4796712,26.6499245 L51.0941381,28.2051735 L51.0941381,37.7517222 L51.0941381,47.3169712 L49.3061732,49.0072786 C45.0414455,53.0798078 39.1051109,56.2879634 33.705893,57.4588156 C31.6696284,57.9003525 27.2314027,57.9200918 24.8678813,57.4785549 C14.8008385,55.6531891 8.24946887,48.201084 8.24946887,38.6160957 C8.26816926,32.3930218 10.1704144,27.4758584 13.9551654,23.9030451 C18.6624689,19.4658584 26.1363911,17.6030918 34.2824883,18.8508233 Z" id="Fill-6" fill="#124B99" mask="url(#mask-4)"></path>
            </g>
            <path d="M430.769281,34.7801265 L430.82746,61.9216634 L431.287697,63.2649747 C431.864293,65.0134611 432.26739,65.7625156 433.209682,66.9728463 C434.842849,69.0278113 437.916985,70.6412393 441.451359,71.3134144 C445.198709,72.0240292 449.405258,71.8900097 456.476082,70.7949981 L459.26244,70.3721615 L459.319581,67.0497257 C459.33932,65.2440992 459.33932,63.7459903 459.319581,63.7459903 C459.281141,63.7459903 457.97523,63.9953288 456.379464,64.3225856 C450.673767,65.4549981 446.235542,65.513177 442.988946,64.5137451 C440.645164,63.8031304 439.107577,62.112823 438.626561,59.7887802 C438.473841,59.0210253 438.415662,54.0072432 438.415662,42.9625856 L438.415662,27.2501031 L448.214666,27.2501031 L458.01367,27.2501031 L458.01367,23.9858463 L458.01367,20.7205506 L448.214666,20.7205506 L438.415662,20.7205506 L438.415662,14.1899591 L438.415662,7.6593677 L434.573771,7.6593677 L430.730841,7.6593677 L430.769281,34.7801265 Z" id="Fill-9" fill="#124B99"></path>
            <g id="Group-13" transform="translate(525.688716, 8.380060)">
                <mask id="mask-6" fill="white">
                    <use xlink:href="#path-5"></use>
                </mask>
                <g id="Clip-12"></g>
                <path d="M0.722146693,0.94831751 L0.722146693,32.1997844 L0.722146693,63.3733331 L4.50793658,63.3733331 L8.31138794,63.3733331 L8.31138794,32.1603058 L8.31138794,0.94831751 L4.52663696,0.890138521 C2.43219339,0.871438132 0.722146693,0.890138521 0.722146693,0.94831751" id="Fill-11" fill="#124B99" mask="url(#mask-6)"></path>
            </g>
            <path d="M68.1072327,20.9486953 C62.670614,21.7174891 57.5591743,24.0799716 52.5838319,28.0745825 C51.7568591,28.7467576 51.027544,29.3036136 50.969365,29.3036136 C50.9122249,29.3036136 50.8924856,27.9603023 50.9122249,26.327135 L50.9309253,23.3309171 L47.1648747,23.2924774 L43.399863,23.2540377 L43.399863,47.513637 L43.399863,71.7534969 L47.1461743,71.7150572 L50.8924856,71.6579171 L50.8924856,54.4473257 L50.8924856,37.2180339 L52.7760304,35.4311078 C57.0023183,31.4177965 61.7480615,28.7467576 66.6860031,27.6527848 C68.7025284,27.1915086 73.1604934,27.1915086 75.196758,27.6527848 C80.1544389,28.7664969 83.1703961,31.7440144 84.1500887,36.4689794 C84.4960459,38.1208471 84.5147463,39.2927381 84.5147463,54.9854813 L84.5147463,71.7534969 L88.3576763,71.7534969 L92.2006062,71.7534969 L92.2006062,54.408886 C92.2006062,40.2526914 92.1424272,36.7567576 91.912828,35.2586486 C90.7211977,27.4221467 85.7448163,22.6203023 77.2527619,21.1408938 C74.8321004,20.6993568 70.4125751,20.6224774 68.1072327,20.9486953" id="Fill-14" fill="#218EC9"></path>
            <path d="M121.864826,19.3629023 C109.146483,20.8225716 100.270032,29.02477 98.4249268,40.9712019 C98.04053,43.3721241 98.1755883,48.7121241 98.6368646,50.8637078 C99.8087556,56.1839685 102.037219,60.333377 105.649511,63.9248907 C111.144308,69.4373498 118.71381,72.0689101 128.032837,71.7229529 C138.618296,71.3395949 144.843448,68.6893342 151.145479,61.8501864 L152.912666,59.9292409 L150.127347,57.8742759 C148.590798,56.7605638 147.22567,55.8006105 147.091651,55.7621708 C146.956592,55.7237311 146.188837,56.5112253 145.343164,57.5096183 C141.154277,62.5618401 135.966997,64.884844 128.225036,65.2121008 C121.21239,65.499879 115.390335,63.3680346 111.163009,58.9495482 C109.415561,57.1252214 108.762086,56.1652681 107.666036,53.8983654 C106.782962,52.0927389 105.841709,48.8471825 105.841709,47.6752914 L105.841709,47.0228556 L130.145981,47.0228556 C143.517798,47.0228556 154.450254,46.9646767 154.450254,46.8690969 C154.411814,45.0821708 153.969238,40.8184821 153.701199,39.4346533 C151.0873,26.9500658 141.135577,19.6506805 126.207472,19.2673226 C124.574304,19.2288829 122.614919,19.2673226 121.864826,19.3629023 M128.743452,25.9132331 C134.814845,26.5656689 139.751748,29.1400891 142.845623,33.2500191 C144.228413,35.0940852 145.438744,37.7443459 145.90002,39.8574899 L146.035079,40.4912253 L126.033974,40.4912253 C115.025678,40.4912253 106.033907,40.4527856 106.033907,40.4143459 C106.033907,40.0496883 107.282678,36.6306339 107.782394,35.6509412 C111.451826,28.3712953 119.002627,24.8753615 128.743452,25.9132331" id="Fill-16" fill="#218EC9"></path>
            <path d="M177.793534,19.3588506 C169.513417,20.1266054 163.422285,23.3545004 161.001623,28.2716638 C160.195429,29.8840529 159.829732,31.4216405 159.695713,33.5534848 C159.330016,40.0071969 163.019188,44.0984265 171.049966,46.2302708 C173.950604,46.9990646 176.467884,47.4219012 182.827055,48.2280957 C185.805612,48.6124926 189.187265,49.0924693 190.320717,49.3033681 C197.621141,50.6103175 200.753456,52.8761813 200.753456,56.8136521 C200.753456,61.2321385 196.180172,64.3239362 188.495351,65.0729907 C181.098308,65.8033447 173.893464,64.0164187 168.437106,60.0986872 C166.919258,59.0234148 164.632616,56.9102708 163.499164,55.584621 L162.884129,54.8355665 L161.693538,55.8921385 C161.040063,56.4874342 159.771553,57.639586 158.86874,58.4852591 L157.235573,60.0031074 L158.099946,61.0202008 C161.078503,64.5732747 166.59304,68.2042669 171.529942,69.8363953 C180.349254,72.7754732 193.182915,72.2767961 200.27244,68.7424226 C205.459721,66.1680023 208.112059,62.3074109 208.380098,56.9871502 C208.668915,51.0705549 205.786977,46.9221852 199.735324,44.5015237 C196.41081,43.1769128 192.664499,42.4278584 183.941806,41.3328467 C173.950604,40.0840763 170.49311,39.123084 168.609565,37.0296794 C167.629872,35.9357066 167.245475,34.782516 167.360795,33.2272669 C167.552993,30.7110257 168.975261,28.7703409 171.568382,27.5215704 C176.026347,25.3897261 184.037386,25.1206482 190.205398,26.9075743 C193.913269,27.9828467 197.121425,29.9037922 199.946223,32.7462514 L201.713409,34.5331774 L204.21095,32.2662747 C205.594779,31.0175043 206.70953,29.9224926 206.70953,29.8082125 C206.70953,29.4238156 204.269129,26.7153759 202.8853,25.5632241 C198.620573,21.9904109 193.067596,19.9728467 185.671592,19.3391113 C183.038993,19.1282125 180.291075,19.1282125 177.793534,19.3588506" id="Fill-18" fill="#218EC9"></path>
            <path d="M335.915921,19.4501708 C325.098784,20.3727233 316.471672,26.6529374 313.167936,36.0072875 C312.014746,39.2725833 311.726967,41.1935288 311.726967,45.3616377 C311.726967,49.4144276 311.996045,51.1431747 313.051578,54.3128907 C315.35796,61.1884004 320.986777,67.008377 327.845664,69.6596767 C331.996111,71.2533654 335.030769,71.7717817 340.237788,71.7530813 C348.461804,71.7343809 354.032442,70.2736728 359.162582,66.8161786 C360.75731,65.7409062 366.387166,60.4206455 366.368465,60.0165093 C366.348726,59.9406689 365.041777,58.9225366 363.447049,57.7693459 L360.546411,55.6759412 L359.969816,56.329416 C357.818232,58.8259179 356.760621,59.8824899 355.39757,60.9203615 C351.400882,63.9165794 347.059275,65.2037895 340.718804,65.2224899 C335.877481,65.2224899 332.342068,64.3778556 328.921975,62.3800307 C323.791835,59.3640735 320.102664,53.8703148 319.393088,48.1853965 L319.25803,47.0903848 L343.599703,47.0903848 L367.963193,47.0903848 L367.846835,44.6312837 C367.2131,32.0500774 360.449792,23.6182798 348.461804,20.5067428 C344.868212,19.5654899 339.585353,19.1239529 335.915921,19.4501708 M343.985139,26.2685405 C351.189983,27.4404315 356.8001,31.916058 358.893504,38.1775716 C359.201022,39.0803848 359.451399,39.9831981 359.451399,40.1753965 C359.451399,40.5597934 359.162582,40.5597934 339.488734,40.5597934 L319.527107,40.5597934 L319.911504,39.2538829 C320.429921,37.4669568 321.813749,34.6047584 322.830843,33.1835288 C326.96259,27.4019918 334.916489,24.8088712 343.985139,26.2685405" id="Fill-20" fill="#124B99"></path>
            <path d="M400.528258,20.8720237 C394.745682,21.4288798 389.250885,23.8298019 383.851667,28.1329693 L382.410698,29.285121 L382.353558,25.7507475 L382.315118,22.1976735 L378.472188,22.1976735 L374.629258,22.1976735 L374.629258,46.9756891 L374.629258,71.7537047 L378.472188,71.7537047 L382.315118,71.7537047 L382.315118,54.3893545 L382.315118,37.0260432 L384.005426,35.4894946 C389.423344,30.5338914 394.822562,27.8638914 400.355799,27.4026152 C402.430504,27.2104167 405.4662,27.4223545 407.194947,27.8638914 C410.481021,28.6898253 413.055441,30.6876502 414.419531,33.4334907 C415.8605,36.3538681 415.802321,35.623514 415.8792,54.7166113 L415.957118,71.7537047 L419.74083,71.715265 L423.52662,71.657086 L423.58376,55.3306074 C423.6222,45.0163039 423.56506,38.2166346 423.430002,36.8722844 C423.180663,34.068265 422.642507,32.0891405 421.604636,29.9770354 C420.106527,26.9028992 418.088963,24.8676735 414.976387,23.2729459 C412.132889,21.8132767 409.692488,21.1795412 405.65736,20.8522844 C402.968659,20.6413856 402.930219,20.6413856 400.528258,20.8720237" id="Fill-22" fill="#124B99"></path>
            <g id="Group-26" transform="translate(463.354086, 19.808075)">
                <mask id="mask-8" fill="white">
                    <use xlink:href="#path-7"></use>
                </mask>
                <g id="Clip-25"></g>
                <path d="M25.4956949,0.586153307 C20.2502358,0.951849805 15.7933097,2.02712218 12.238158,3.79327004 C9.37595953,5.23423891 7.24411518,6.90584591 4.8037144,9.65272529 L3.61312296,10.9970755 L4.0920607,11.3617331 C4.34243813,11.5539315 5.64834864,12.4567447 6.97503735,13.359558 L9.39569883,15.0114257 L10.7203097,13.6286358 C13.2573292,10.9970755 16.1008272,9.22988872 19.6352008,8.11617665 C26.0909907,6.07991206 35.3133992,6.34795097 40.2710802,8.73017276 C43.9020724,10.4776202 45.5726405,12.9367214 45.5726405,16.5479743 L45.5726405,17.8351844 L44.7664459,17.9494646 C44.3041307,18.0076436 41.4429712,18.3151611 38.368835,18.641379 C28.4929518,19.6782117 23.4791696,20.4470054 18.5796677,21.6188965 C8.31938755,24.0769588 2.76641089,28.0726086 1.0761035,34.2001027 C0.595087938,35.9091105 0.595087938,40.1353984 1.05740311,41.8828459 C2.47863268,47.2612856 6.47428249,50.6803401 13.0651307,52.178449 C19.3858623,53.5996786 27.1860023,53.1197019 34.1228078,50.9109782 C37.6384809,49.7775268 41.5001113,47.9906008 44.382049,46.1860132 C44.9576054,45.8016163 45.3814809,45.6281183 45.3814809,45.781877 C45.4001813,46.3200327 45.7845782,48.7978342 46.0733953,50.0850444 L46.3809128,51.4875735 L50.2030646,51.4875735 C53.1421424,51.4875735 54.0272942,51.4293946 54.0075549,51.2371961 C54.0075549,51.121877 53.8724965,50.3541222 53.7000374,49.566628 C53.4496599,48.336558 53.3738195,45.5709782 53.2772008,31.0303868 C53.1421424,14.2623712 53.1421424,13.916414 52.7203447,12.4370054 C50.9334187,6.00303268 45.0542241,2.08426226 35.4287183,0.893670817 C32.4501619,0.50927393 28.339193,0.393954864 25.4956949,0.586153307 Z M45.5726405,31.6069821 L45.5726405,39.0019471 L42.4798039,40.5384957 C33.5077728,45.0328226 26.4951268,46.896628 19.539621,46.6275502 C15.0629556,46.4540521 12.2578973,45.4753984 10.1063136,43.3425152 C8.4928856,41.7290872 8.03057043,40.5384957 8.03057043,37.9453751 C8.01187004,36.2353284 8.07004903,35.8904101 8.53028638,34.9107175 C9.26064047,33.3741689 10.0491735,32.4131767 11.4506638,31.433484 C14.6972591,29.1291805 19.2134031,27.649772 27.0322436,26.3438615 C31.5473486,25.594807 42.4798039,24.2888965 44.5732086,24.2307175 L45.5726405,24.2120171 L45.5726405,31.6069821 Z" id="Fill-24" fill="#124B99" mask="url(#mask-8)"></path>
            </g>
            <polygon id="Fill-27" fill="#218EC9" points="29.7583447 47.5519728 29.7583447 71.753393 33.6012747 71.753393 37.4431658 71.753393 37.4431658 47.5519728 37.4431658 23.3495136 33.6012747 23.3495136 29.7583447 23.3495136"></polygon>
        </g>
    </g>
</svg>